<svg xmlns="http://www.w3.org/2000/svg" width="71" height="19" viewBox="0 0 71 19" fill="none">
  <path d="M44.7311 18.6117C42.3063 18.6117 40.3282 17.8459 38.8605 16.3145C37.5205 14.9745 36.7548 13.3154 36.4995 11.1458C36.2443 9.04009 36.5634 7.18959 37.3291 5.46671C38.6691 2.65905 40.9663 1.1276 44.2206 0.999984C46.5816 0.872363 48.6235 1.57428 50.0912 3.04192C51.1759 4.12669 51.814 5.53052 52.0055 7.2534V7.44483H47.9216L47.8578 7.38102C47.8578 7.31721 47.794 7.2534 47.794 7.18959V7.12578C47.7302 6.93435 47.6664 6.74292 47.6026 6.6153C47.1559 5.59433 46.1349 4.89242 44.9225 4.7648C43.6463 4.63718 42.4977 5.08385 41.7958 6.04101C40.8386 7.2534 40.5196 8.78485 40.711 10.6354C40.8386 11.4649 41.0301 12.2944 41.4129 13.0601C42.1787 14.6554 44.1568 15.4211 45.8797 14.7192C46.8368 14.3364 47.4749 13.5706 47.794 12.2306C47.8578 12.103 47.8578 11.9116 47.9216 11.7839C47.9216 11.7201 47.9216 11.5925 47.9854 11.5287L48.0492 11.3373H52.1331V11.5287C52.1969 12.4859 51.8778 13.3154 51.6864 14.0173C50.6655 16.825 48.2407 18.5478 45.1778 18.6117C44.9863 18.6117 44.8587 18.6117 44.7311 18.6117ZM44.7311 1.38285C44.5396 1.38285 44.412 1.38285 44.2206 1.38285C41.1577 1.57428 38.9881 2.97811 37.6481 5.65814C36.8824 7.31721 36.5634 9.1039 36.8186 11.082C37.0738 13.124 37.7758 14.7192 39.052 15.9954C40.5834 17.5269 42.5615 18.2288 45.0501 18.165C47.9216 18.1012 50.2188 16.4421 51.1759 13.8259C51.3674 13.2516 51.6226 12.4859 51.6226 11.7201H48.3045V11.7839V11.8478C48.3045 12.0392 48.2407 12.1668 48.1768 12.2944C47.794 13.7621 47.0921 14.6554 46.0073 15.0383C44.093 15.7402 41.9234 14.9106 41.0301 13.1878C40.6472 12.422 40.392 11.5287 40.2644 10.6354C40.0729 8.65723 40.392 7.06197 41.4129 5.72195C42.1787 4.70099 43.5187 4.12669 44.9225 4.31812C46.2625 4.44575 47.4111 5.21147 47.9216 6.42387C47.9854 6.6153 48.0492 6.80673 48.113 6.99816C48.113 7.06197 48.113 7.06197 48.1768 7.12578H51.495C51.3036 5.59433 50.7293 4.31812 49.7083 3.36097C48.4321 2.02095 46.773 1.38285 44.7311 1.38285ZM19.2707 10.1249C19.3345 7.38102 19.9727 5.14766 21.8232 3.36097C23.6098 1.7019 25.7794 1.25523 28.1404 1.44666C32.0328 1.82952 34.4576 4.89242 34.8405 8.40199C35.0957 10.6354 34.8405 12.7411 33.6919 14.7192C32.4795 16.6973 30.6928 17.7821 28.3956 18.1012C26.5451 18.3564 24.8222 18.165 23.1632 17.2078C20.9936 15.9954 19.9088 14.0811 19.4622 11.7201C19.3984 11.2735 19.3345 10.8268 19.3345 10.5077C19.3345 10.3163 19.2707 10.2525 19.2707 10.1249ZM22.7165 9.80582C22.7803 11.0182 22.9079 12.1668 23.4822 13.2516C24.3118 14.7192 25.5242 15.3573 27.1832 15.3573C28.7785 15.3573 30.0547 14.6554 30.7566 13.2516C31.8414 11.0182 31.8414 8.72104 30.7566 6.48768C30.0547 5.02004 28.7147 4.31812 27.1194 4.31812C25.4603 4.31812 24.2479 5.02004 23.4184 6.55149C22.9079 7.50864 22.7803 8.65723 22.7165 9.80582ZM10.082 1.82952V14.9106H17.8669V17.7821H6.70009V1.82952H10.082ZM3.38195 1.82952H0V17.7821H3.38195V1.82952ZM51.495 18.2926H56.6636L63.2999 9.48677L57.3017 1.38285H52.4521L58.0675 9.48677L51.495 18.2926ZM56.4722 17.9097H52.3245L58.5779 9.55058L53.2179 1.76571H57.1103L62.7894 9.48677L56.4722 17.9097ZM65.0228 7.70008L62.3428 4.12669L64.8314 1.31904H69.8724L65.0228 7.70008ZM62.7894 4.1905L64.959 7.06197L68.9152 1.76571H64.8952L62.7894 4.1905ZM64.7037 18.8031H70.0638L64.8314 11.4649L62.0875 15.0383L64.7037 18.8031ZM69.2343 18.3564H64.8952L62.5342 14.9745L64.7675 12.103L69.2343 18.3564Z" fill="#1F67D6"/>
</svg>