<svg xmlns="http://www.w3.org/2000/svg" width="22" height="22" viewBox="0 0 22 22" fill="none">
  <path d="M20.9 11C20.9 12 19.8 12.9 19.5 13.8C19.2 14.8 19.6 16.1 19 16.9C18.4 17.7 17.1 17.7 16.3 18.3C15.5 18.9 15 20.2 14.1 20.5C13.1 20.7 12 20 11 20C10 20 8.9 20.8 7.9 20.5C6.9 20.2 6.5 18.9 5.7 18.3C4.9 17.7 3.5 17.7 3 16.9C2.4 16.1 2.8 14.8 2.5 13.8C2.2 12.9 1.1 12 1.1 11C1.1 9.99999 2.2 9.09999 2.5 8.19999C2.8 7.29999 2.4 5.99999 3 5.19999C3.6 4.39999 4.9 4.39999 5.7 3.79999C6.5 3.19999 7 1.89999 7.9 1.59999C8.9 1.29999 10 1.99999 11 1.99999C12 1.99999 13.1 1.19999 14.1 1.49999C15.1 1.79999 15.5 3.09999 16.3 3.69999C17.1 4.29999 18.5 4.29999 19 5.09999C19.6 5.89999 19.2 7.19999 19.5 8.19999C19.8 9.09999 20.9 9.99999 20.9 11Z" stroke="#1F67D6" stroke-miterlimit="10" stroke-linejoin="round"/>
  <path d="M18.1 11C18.1 14.9 14.9 18.1 11 18.1C7.1 18.1 3.9 14.9 3.9 11H18.1Z" fill="#D2E1F7"/>
  <path d="M11 6.79999L12.2 9.19999L15 9.59999L13 11.6L13.5 14.3L11 13L8.5 14.3L9 11.6L7 9.59999L9.8 9.19999L11 6.79999Z" stroke="#1F67D6" stroke-miterlimit="10" stroke-linejoin="round"/>
</svg>