<svg xmlns="http://www.w3.org/2000/svg" width="100" height="73" viewBox="0 0 100 73" fill="none">
  <path d="M35.8821 8.49579C34.8826 9.39534 35.1825 9.24541 34.6327 9.14546C34.6327 8.79564 34.8326 8.94556 34.9826 8.94556C34.9826 8.84561 35.0325 8.79564 35.0325 8.69569C30.5348 11.1445 26.6867 14.6427 23.8381 18.8906H25.0375C26.7367 16.4918 28.7857 14.2929 31.0845 12.4938C30.9846 12.3938 30.8346 12.2939 30.7347 12.1939C30.8846 11.994 30.9846 11.8941 31.1345 11.7442C31.1345 11.7442 31.1345 11.6942 31.1345 11.4943C31.4343 11.5443 31.7342 11.5942 32.134 11.6442C32.084 11.6942 32.034 11.7941 31.9841 11.8441C33.1835 10.9446 34.4828 10.145 35.8321 9.39534C35.7322 9.19544 36.2819 8.94556 35.8821 8.49579ZM28.136 14.093C28.4858 14.1929 28.6357 13.5932 29.0355 13.8931C28.6857 13.8931 28.5358 14.4428 28.136 14.093ZM32.9336 10.6947C32.9836 10.5448 32.9836 10.3948 33.0335 10.145C33.2834 10.2949 33.4333 10.4448 33.5833 10.5448C33.4333 10.6947 33.5833 10.6447 32.9336 10.6947ZM34.7827 9.94506C34.6827 9.84511 34.6327 9.79514 34.4328 9.59524C34.7327 9.59524 34.8326 9.54526 35.0325 9.54526C34.9326 9.74516 34.8326 9.79514 34.7827 9.94506ZM27.9361 58.6707C27.7362 58.4208 27.4863 58.1709 27.1865 57.7711C27.7362 57.8711 28.136 58.121 28.5358 58.121H28.6357C28.5358 58.021 28.4358 57.9211 28.2859 57.8211C28.186 57.8711 28.086 57.8711 27.9861 57.8211C27.3864 57.5712 27.3864 57.0715 27.3364 56.9216L27.3864 56.8716C27.2864 56.7716 27.2364 56.6717 27.1365 56.6217C27.1865 56.8716 27.2364 56.7716 26.9866 56.9216C26.9366 56.7716 26.8866 56.8216 27.1365 56.6217C26.3869 55.7721 25.6872 54.8726 25.0375 53.973H23.8381C24.4878 54.9226 25.1375 55.8221 25.8871 56.6717C25.9371 56.6217 25.9371 56.5717 25.9871 56.5218C25.9871 56.5717 26.037 56.6717 26.137 56.9715C26.8366 57.7711 27.5363 58.5208 28.2859 59.2704C28.3359 59.1704 28.4858 59.0705 28.5858 58.9206C28.4858 58.4708 28.186 58.7706 27.9361 58.6707ZM26.2369 56.2719C26.187 56.3718 26.037 56.4218 26.037 56.4218C26.037 56.122 25.9371 56.072 26.187 55.8721L26.3369 55.9221C26.2869 56.072 26.2869 56.2219 26.2369 56.2719Z" fill="#3565CF"/>
  <path d="M31.5343 12.1939C31.5343 11.994 31.4344 11.8941 31.1345 11.8441C31.1345 11.8441 31.2345 11.8941 31.5343 12.1939Z" fill="#3565CF"/>
  <path d="M74.9626 53.9231C69.4653 61.7691 60.3199 66.9166 50.025 66.9166C42.079 66.9166 34.7827 63.8681 29.3354 58.8206C29.2854 58.8706 29.1855 58.8706 29.0855 58.9206C29.0855 59.2204 29.0355 59.5203 28.9356 59.8201C34.5328 64.8676 41.9291 67.966 50.025 67.966C50.4248 67.966 50.8246 67.966 51.2244 67.9161C51.2244 67.8661 51.2244 67.7661 51.2744 67.7162C51.4243 67.7661 51.5743 67.8661 51.6742 67.9161C61.9191 67.4163 70.8646 61.969 76.2619 53.973H74.9626V53.9231ZM37.1815 64.8676C36.9316 64.8176 36.9316 64.7177 37.0315 64.4178C37.1315 64.5677 37.2314 64.6677 37.3314 64.8176C37.2814 64.8176 37.2314 64.8676 37.1815 64.8676ZM48.7257 67.7661C48.5758 67.4163 48.7757 67.3663 48.9756 67.2664C48.9256 67.4163 48.8256 67.5662 48.7257 67.7661ZM55.0725 66.8166C55.0725 66.7167 55.0725 66.6167 55.0725 66.5168H55.1725C55.2724 66.8666 55.2724 66.8166 55.0725 66.8166ZM66.0171 9.29537C65.9671 9.34535 65.9171 9.4453 65.8171 9.4453C65.6672 9.29537 65.6172 9.19542 65.6672 9.0455C65.3174 8.8456 64.9176 8.6457 64.5678 8.4458C64.5678 8.54575 64.4678 8.6457 64.2679 8.79562C64.2679 8.6457 64.3179 8.49577 64.3179 8.29587C64.168 8.19592 63.9681 8.14595 63.8181 8.046C63.7182 8.046 63.6182 8.046 63.5183 7.99602C63.5683 7.99602 63.6682 8.2459 63.7682 8.39582C63.7182 8.39582 63.6182 8.49577 63.5683 8.4458C63.3684 8.34585 63.5183 8.19592 63.5183 8.046C63.5183 7.99602 63.5183 7.99602 63.5183 7.99602C63.5183 7.94605 63.5683 7.94605 63.5683 7.89607C60.2199 6.29687 56.5218 5.29737 52.6737 4.94755C52.5238 5.09747 52.4738 5.29737 52.3239 5.54725C52.024 5.14745 51.9241 4.99752 51.9241 4.89757C51.3244 4.84759 50.6747 4.8476 50.075 4.8476C44.9276 4.8476 40.08 6.09697 35.8321 8.2459C35.8821 8.2459 35.9321 8.2459 36.032 8.2459C36.2319 8.29587 36.5318 8.59572 36.5818 8.8456C36.5818 8.89557 36.6317 8.94555 36.6317 8.94555C36.8316 8.8456 37.0815 8.74565 37.2814 8.6457C37.1815 8.54575 37.1315 8.4458 37.0315 8.29587C37.2814 8.29587 37.4813 8.2459 37.7312 8.2459C37.6812 8.34585 37.6312 8.4458 37.5813 8.49577C37.6812 8.4458 37.8311 8.39582 37.9311 8.34585C37.7812 8.2459 37.6312 8.19592 37.4313 8.09597C37.8311 7.89607 38.181 7.74615 38.4808 7.6462C38.4308 7.8461 38.3309 8.046 38.2809 8.2459C39.7802 7.59622 41.3294 7.09647 42.9286 6.69667C42.8786 6.69667 42.8786 6.6467 42.8286 6.6467C42.8786 6.49677 42.9786 6.34685 43.0785 6.09697C43.2784 6.2469 43.3784 6.34685 43.4783 6.4468C43.3784 6.49677 43.2784 6.59672 43.2284 6.59672C45.3274 6.09697 47.5263 5.8471 49.7752 5.8471C49.7752 5.8471 49.7752 5.8471 49.7752 5.79712C49.7752 5.79712 49.7752 5.79712 49.7752 5.8471C49.8751 5.8471 49.9251 5.8471 50.025 5.8471C50.9746 5.8471 51.9741 5.89707 52.9236 5.99702C52.8236 5.99702 52.7737 5.94705 52.6737 5.89707C52.6737 5.8471 52.6237 5.74715 52.6237 5.69717C52.7237 5.6472 53.2734 5.09747 53.6232 5.6472C53.7232 5.79712 53.6732 5.94705 53.5733 6.047C53.9731 6.09697 54.3229 6.14695 54.7227 6.19692C54.7727 6.14695 54.8226 6.047 54.9226 5.94705C55.0725 6.047 55.2224 6.19692 55.3724 6.29687C56.3219 6.4468 57.2214 6.6467 58.121 6.89657H58.171C58.4208 6.49677 58.6707 6.6467 58.9706 6.8466C58.8706 6.94655 58.8206 7.0465 58.7207 7.09647C59.0705 7.19642 59.4703 7.34635 59.8201 7.4463V7.39632C59.8701 7.34635 59.9701 7.29637 60.02 7.2464C60.07 7.34635 60.12 7.4463 60.17 7.54625C66.2169 9.69517 71.4143 13.6932 75.0625 18.8406H76.2619C73.5633 15.0425 70.065 11.7441 66.0171 9.29537ZM57.3714 6.2469C57.6212 6.29687 57.7712 6.34685 58.071 6.39682C57.6712 6.69667 57.6212 6.69667 57.3714 6.2469Z" fill="#3565CF"/>
  <path d="M25.8371 11.0945C25.7871 10.9945 25.7371 10.8946 25.6372 10.7946C25.6372 10.9945 25.5872 11.0945 25.5872 11.1944C25.6871 11.1944 25.7371 11.1444 25.8371 11.0945Z" fill="#3565CF"/>
  <path d="M37.9311 1.99901C37.981 1.99901 38.031 1.99901 38.131 1.94904C38.031 1.94904 37.981 1.99901 37.9311 1.99901Z" fill="#3565CF"/>
  <path d="M77.5612 60.2199C77.5612 60.2699 77.5612 60.3199 77.6112 60.3199L77.6611 60.2699C77.5612 60.2199 77.5612 60.2199 77.5612 60.2199Z" fill="#3565CF"/>
  <path d="M26.9865 9.89503C27.0365 9.7451 27.0365 9.7451 27.0365 9.69513C26.9865 9.69513 26.9865 9.69513 26.8366 9.69513C26.8366 9.7451 26.8866 9.7451 26.9865 9.89503Z" fill="#3565CF"/>
  <path d="M38.031 3.19841C38.031 3.04848 38.031 2.89856 37.981 2.64868C37.881 2.74863 37.7811 2.79861 37.7311 2.84858C37.7311 3.04848 37.881 3.14843 38.031 3.19841Z" fill="#3565CF"/>
  <path d="M39.3803 69.1154C39.5302 69.1154 39.6802 69.3653 39.8801 69.1154C39.4803 68.9655 39.4303 68.8656 39.3803 69.1154ZM39.3803 69.1154C39.5302 69.1154 39.6802 69.3653 39.8801 69.1154C39.4803 68.9655 39.4303 68.8656 39.3803 69.1154ZM39.3803 69.1154C39.5302 69.1154 39.6802 69.3653 39.8801 69.1154C39.4803 68.9655 39.4303 68.8656 39.3803 69.1154ZM39.3803 69.1154C39.5302 69.1154 39.6802 69.3653 39.8801 69.1154C39.4803 68.9655 39.4303 68.8656 39.3803 69.1154ZM39.3803 69.1154C39.5302 69.1154 39.6802 69.3653 39.8801 69.1154C39.4803 68.9655 39.4303 68.8656 39.3803 69.1154ZM39.3803 69.1154C39.5302 69.1154 39.6802 69.3653 39.8801 69.1154C39.4803 68.9655 39.4303 68.8656 39.3803 69.1154ZM39.3803 69.1154C39.5302 69.1154 39.6802 69.3653 39.8801 69.1154C39.4803 68.9655 39.4303 68.8656 39.3803 69.1154ZM39.3803 69.1154C39.5302 69.1154 39.6802 69.3653 39.8801 69.1154C39.4803 68.9655 39.4303 68.8656 39.3803 69.1154ZM39.3803 69.1154C39.5302 69.1154 39.6802 69.3653 39.8801 69.1154C39.4803 68.9655 39.4303 68.8656 39.3803 69.1154ZM39.3803 69.1154C39.5302 69.1154 39.6802 69.3653 39.8801 69.1154C39.4803 68.9655 39.4303 68.8656 39.3803 69.1154ZM39.3803 69.1154C39.5302 69.1154 39.6802 69.3653 39.8801 69.1154C39.4803 68.9655 39.4303 68.8656 39.3803 69.1154ZM39.3803 69.1154C39.5302 69.1154 39.6802 69.3653 39.8801 69.1154C39.4803 68.9655 39.4303 68.8656 39.3803 69.1154ZM39.3803 69.1154C39.5302 69.1154 39.6802 69.3653 39.8801 69.1154C39.4803 68.9655 39.4303 68.8656 39.3803 69.1154ZM39.3803 69.1154C39.5302 69.1154 39.6802 69.3653 39.8801 69.1154C39.4803 68.9655 39.4303 68.8656 39.3803 69.1154ZM39.3803 69.1154C39.5302 69.1154 39.6802 69.3653 39.8801 69.1154C39.4803 68.9655 39.4303 68.8656 39.3803 69.1154ZM39.3803 69.1154C39.5302 69.1154 39.6802 69.3653 39.8801 69.1154C39.4803 68.9655 39.4303 68.8656 39.3803 69.1154ZM39.3803 69.1154C39.5302 69.1154 39.6802 69.3653 39.8801 69.1154C39.4803 68.9655 39.4303 68.8656 39.3803 69.1154ZM39.3803 69.1154C39.5302 69.1154 39.6802 69.3653 39.8801 69.1154C39.4803 68.9655 39.4303 68.8656 39.3803 69.1154ZM39.3803 69.1154C39.5302 69.1154 39.6802 69.3653 39.8801 69.1154C39.4803 68.9655 39.4303 68.8656 39.3803 69.1154ZM39.3803 69.1154C39.5302 69.1154 39.6802 69.3653 39.8801 69.1154C39.4803 68.9655 39.4303 68.8656 39.3803 69.1154ZM80.9595 17.0915C80.9595 17.1914 80.9095 17.2914 81.0595 17.4413C80.8096 17.3913 80.6097 17.3413 80.4098 17.3413C80.2599 16.9415 80.8096 16.9915 80.4598 16.3418C80.3598 16.3418 80.2599 16.3418 80.1599 16.3418C79.96 15.992 79.7601 15.6922 79.5602 15.2424C79.6602 15.2424 79.7101 15.2424 79.8101 15.2424C79.5602 14.8926 79.3103 14.5427 79.0105 14.1929C79.0105 14.2929 79.0105 14.4428 78.9605 14.6927C78.5607 14.2929 78.5607 14.1929 78.8106 13.943C77.961 12.8936 77.0615 11.8441 76.1119 10.8446C76.3118 11.5442 76.7116 12.2439 77.1114 12.8936C76.8616 13.0435 76.5117 12.8436 76.4118 12.4438C76.1619 11.5942 75.2124 10.7446 75.4123 10.5447C75.5122 10.4448 75.6622 10.5447 75.8121 10.7446C75.8621 10.7946 75.962 10.8446 76.062 10.8946C75.962 10.7946 75.912 10.7446 75.8121 10.6447C72.4638 7.29635 68.5657 4.64768 64.2179 2.84858C59.7201 0.949525 54.9225 0 50.025 0C46.1269 0 42.3288 0.5997 38.6807 1.7991C38.6807 1.84908 38.6807 1.89905 38.7306 1.94903C38.5807 1.999 38.5307 1.94903 38.4808 1.89905C38.4308 1.89905 38.3808 1.94903 38.3308 1.94903C38.4308 1.94903 38.5307 2.04898 38.5807 2.14893C38.4308 2.29885 38.3308 2.3988 38.1809 2.54873C38.081 2.89855 38.4808 3.04848 38.5807 3.34833C38.4308 3.3983 38.2309 3.3983 38.1809 3.64818C38.1809 3.69815 38.031 3.7981 37.981 3.7981C37.5312 3.64818 37.6812 4.1979 37.1814 4.24788C36.9815 4.24788 36.8316 4.3978 36.6317 4.49775C36.4818 4.3978 36.4818 4.24788 36.4818 4.09795C36.5317 3.94803 36.4818 3.84808 36.3818 3.69815C36.2819 3.5982 36.2819 3.44828 36.2319 3.29835C36.4818 3.09845 36.6317 3.29835 36.7816 3.29835C37.0315 3.29835 37.0815 3.44828 37.1814 3.5982C37.2814 3.54823 37.3813 3.54823 37.4813 3.49825C37.4813 3.14843 37.3813 2.7986 37.7311 2.49875C37.6312 2.3988 37.5812 2.29885 37.4813 2.1989C37.3813 2.24888 37.2814 2.29885 37.1314 2.34883C36.8816 2.5987 36.8316 2.64868 36.8316 2.64868C36.9315 2.64868 37.1314 2.5987 37.1314 2.84858C36.8816 2.89855 36.8815 2.69865 36.8316 2.64868C36.6817 2.64868 36.5317 2.69865 36.4318 2.69865C36.3818 2.69865 36.3318 2.69865 36.3318 2.64868C36.1819 2.69865 36.032 2.74863 35.8821 2.84858H35.8321C35.8321 2.84858 35.8321 2.84858 35.8821 2.84858C35.4323 3.74813 35.6322 3.54823 34.9825 3.84808C34.9825 3.29835 34.9325 3.64818 35.4323 3.1984C35.4823 3.04848 35.5322 2.9985 35.5822 2.94853C33.2833 3.94803 31.0844 5.1974 29.0355 6.5967C29.0854 6.64668 29.0854 6.5967 29.0355 6.69665C28.9855 6.69665 28.9855 6.64668 28.9355 6.64668C28.5857 6.89655 28.2859 7.14643 27.936 7.3963H27.986C27.986 7.54623 27.986 7.64618 27.936 7.7961C27.7861 7.69615 27.6861 7.64618 27.6362 7.5962C27.0864 7.996 26.5867 8.44578 26.037 8.89555C26.037 8.94553 25.987 8.94553 25.937 8.94553C25.987 8.94553 25.987 8.9955 25.937 9.04548C26.037 9.09545 26.037 9.1954 25.887 9.29535C25.887 9.1954 25.8371 9.14543 25.8371 9.09545C25.2873 9.54523 24.7876 10.045 24.2878 10.5447C24.2878 10.5947 24.2878 10.5947 24.2878 10.6447C24.2379 10.6447 24.2379 10.5947 24.2379 10.5947C22.1889 12.6437 20.3898 14.8926 18.8905 17.3413V17.5912C18.8406 17.5412 18.7906 17.5412 18.7906 17.4913C18.4907 18.041 18.2409 18.4908 17.991 18.9405H19.8401C19.8401 18.9405 19.89 18.9405 19.99 18.8906C19.99 18.9405 19.99 18.9405 19.99 18.9405H20.7896C21.1894 18.2909 21.5892 17.6412 22.039 16.9915C22.039 16.9415 22.039 16.9415 22.039 16.8916C22.0889 16.8916 22.0889 16.8916 22.0889 16.8916C23.2384 15.2424 24.5877 13.6932 25.987 12.2439C26.037 12.1939 26.0869 12.1439 26.1369 12.094C29.3353 8.94553 33.1334 6.44678 37.3813 4.74763C37.3313 4.69765 37.3313 4.69765 37.3313 4.54773C37.4813 4.64768 37.4813 4.64768 37.4813 4.69765C37.6812 4.5977 37.8811 4.54773 38.0809 4.49775C38.0809 4.24788 38.081 4.29785 38.1809 4.29785C38.1809 4.34783 38.2309 4.3978 38.2309 4.44778C40.5797 3.5982 43.0285 2.94853 45.5772 2.64868C45.4773 2.49875 45.3273 2.34883 45.2274 2.1989C45.3273 2.14893 45.3773 2.09895 45.3773 2.09895C45.5272 2.1989 45.6772 2.29885 45.8271 2.44878C45.8771 2.49875 45.8771 2.54873 45.8771 2.5987C47.2264 2.44878 48.6257 2.34883 50.025 2.34883C62.4188 2.34883 73.2634 8.9955 79.2104 18.8906H82.009C81.7091 18.3408 81.3593 17.6912 80.9595 17.0915ZM19.6402 17.8911C19.6402 17.8911 19.6901 17.8411 19.7901 17.8411C19.7901 17.8911 19.7901 17.941 19.7901 17.991C19.7901 18.041 19.6901 18.091 19.6402 17.8911ZM23.2384 14.5927C23.5382 14.6427 23.4383 14.7926 23.4882 14.9425C23.3883 14.9925 23.4383 15.0425 23.2384 14.5927ZM23.4882 11.5942C23.5882 11.2944 23.5882 11.3443 23.6881 11.3943C23.5382 11.6442 23.5882 11.6442 23.4882 11.5942ZM26.4368 9.5952C26.3868 9.69515 26.2868 9.7951 26.1369 9.94503C26.0869 9.74513 26.0869 9.64518 26.0869 9.54523C26.3368 9.54523 26.4368 9.5952 26.4368 9.5952ZM26.0869 9.54523C25.937 9.74513 25.7871 9.74513 25.5372 9.69515C25.8371 9.29535 26.037 9.54523 26.0869 9.54523ZM26.3868 11.5942C26.3368 11.6942 26.2868 11.7941 26.0869 11.7441C26.1869 11.5942 26.0869 11.3943 26.2868 11.3443C26.3368 11.3443 26.3368 11.1944 26.3368 11.1444C26.2868 11.0945 26.1869 11.0945 26.1369 11.0945C26.037 11.1444 25.987 11.2444 25.7371 11.5942C25.5372 11.4443 25.5372 11.3443 25.5872 11.1944C25.5372 11.1444 25.4872 11.1444 25.3873 11.0945C25.1874 11.3943 25.1874 11.3943 25.3873 11.7941C25.3373 11.944 25.2374 12.094 25.1374 12.2939C25.0874 12.1939 24.9875 12.1439 24.9375 12.044C24.7876 11.5442 24.6377 11.4943 24.2379 11.6442C24.4877 10.4448 25.6372 10.9945 24.8875 10.7446C24.9375 10.6447 24.9875 10.5447 25.0375 10.4448C25.2374 10.5447 25.4373 10.5947 25.6372 10.6947C25.7371 10.2949 25.887 10.1949 26.3868 10.2449C26.4867 10.6947 26.6866 11.1444 26.3868 11.5942ZM26.4368 9.54523C26.4867 9.44528 26.5367 9.34533 26.6367 9.14543C26.7366 9.54523 26.4867 9.54523 26.4368 9.54523ZM26.6867 10.2949C26.7866 10.2449 26.8366 10.1949 26.8865 10.1949C26.7366 9.995 26.6866 9.84508 26.8366 9.69515C26.8366 9.69515 26.8865 9.64518 26.9865 9.49525C27.0365 9.54523 27.0864 9.64518 27.1364 9.69515C27.1864 9.89505 27.2364 9.74513 26.8865 10.2449H26.8366C26.8865 10.2449 26.8865 10.2949 26.8865 10.4948C26.8366 10.4448 26.7866 10.3948 26.6867 10.2949ZM27.4363 10.7946C27.3363 10.6447 27.2863 10.4448 27.1364 10.2449C27.2863 10.2949 27.4363 10.2949 27.5362 10.3448C27.6861 10.6947 27.6862 10.6947 27.4363 10.7946ZM27.886 10.045C27.8361 10.045 27.8361 9.995 27.7861 9.89505C27.8361 9.84508 27.936 9.84508 27.936 9.84508C27.986 9.84508 27.986 9.94503 27.986 9.94503C27.986 9.995 27.936 10.045 27.886 10.045ZM28.3858 8.9955C28.2359 9.1954 28.2359 9.1954 28.0859 8.89555C28.1859 8.94553 28.2858 8.94553 28.3858 8.9955ZM28.0859 9.995C28.3858 9.94503 28.3358 9.94503 28.3858 9.995C28.2359 10.2449 28.2858 10.2449 28.0859 9.995ZM29.1354 7.54623C29.1354 7.44628 29.1854 7.3963 29.1854 7.29635C28.9855 7.29635 28.8856 7.64618 28.6857 7.3963C28.8356 7.24638 28.9355 7.09645 29.0855 6.9965C29.3853 6.69665 30.035 7.29635 29.1354 7.54623ZM29.885 6.64668C29.7851 6.54673 29.7351 6.49675 29.5852 6.3968C29.6852 6.29685 29.7851 6.24688 29.885 6.14693C30.035 6.34683 29.935 6.44678 29.885 6.64668ZM30.4847 7.54623C30.5347 7.44628 30.6347 7.29635 30.7346 7.04648C30.7346 7.44628 31.0844 7.34633 31.2344 7.54623C30.7846 7.7961 30.9845 7.7961 30.4847 7.54623ZM31.6842 6.49675C31.5342 6.3968 31.3843 6.34683 31.3843 6.09695C31.6342 6.1969 31.7341 6.24688 31.6842 6.49675ZM31.7341 7.24638C31.934 7.1964 32.084 7.14643 32.2339 7.3963C31.6342 7.34633 31.7341 7.3963 31.7341 7.24638ZM35.6322 3.69815C35.7321 3.74813 35.8321 3.84808 35.982 3.89805C35.7321 3.998 35.7321 3.7981 35.6322 3.69815ZM38.8806 2.64868C38.7306 2.49875 38.6807 2.34883 38.5307 2.24888C38.9305 2.14893 39.0305 2.24888 38.8806 2.64868ZM39.2304 3.54823C39.0305 3.34833 38.9805 3.1984 39.3303 3.14843C39.2803 3.24838 39.2304 3.34833 39.2304 3.54823ZM39.7301 1.5992C39.7801 1.54923 39.7801 1.54923 39.93 1.69915C39.8301 1.74913 39.8801 1.74913 39.7301 1.5992ZM41.6292 1.5992C41.6792 1.5992 41.7291 1.74913 41.7791 1.84908C41.7291 1.84908 41.6792 1.89905 41.6292 1.89905C41.5292 1.84908 41.6292 1.69915 41.6292 1.5992C41.8791 1.1994 42.1289 1.3993 42.1289 1.49925C42.1289 1.64918 41.929 1.5992 41.6292 1.5992ZM42.1789 2.09895C42.1789 1.89905 42.2289 1.74913 42.2289 1.49925C42.4288 1.84908 42.4288 1.89905 42.1789 2.09895ZM43.2784 2.5987C43.1284 2.49875 43.1284 2.34883 43.2284 2.24888C43.2784 2.1989 43.3783 2.1989 43.4783 2.14893C43.4783 2.34883 43.4783 2.49875 43.2784 2.5987ZM43.6782 1.74913C43.3783 1.7991 43.4283 1.7991 43.3783 1.69915C43.5782 1.5992 43.5282 1.5992 43.6782 1.64918C43.6782 1.69915 43.6782 1.69915 43.6782 1.74913ZM43.8781 2.44878C43.928 2.1989 43.978 1.94903 44.028 1.69915C44.1779 1.74913 44.3278 1.84908 44.3278 2.04898C44.3278 2.29885 44.1279 2.34883 43.8781 2.44878ZM71.914 9.14543C72.064 9.14543 72.014 9.09545 72.1139 9.29535C72.014 9.34533 72.064 9.34533 71.914 9.14543ZM72.9635 9.14543C73.1134 9.24538 73.0635 9.09545 73.1634 9.995C72.6137 9.5952 72.7136 9.54523 72.9635 9.14543ZM75.1124 12.2939C74.9125 11.8941 75.4123 11.8941 74.9625 11.2944C74.8626 11.2944 74.7626 11.3443 74.6627 11.3443C74.4128 11.0445 74.1629 10.7446 73.8631 10.3948C74.2629 10.2949 74.6627 10.2449 75.2624 10.6447C75.4123 10.9945 75.4623 11.2944 75.4623 11.4943C75.8621 11.7941 75.4623 11.944 75.8121 12.2439C75.5122 12.2939 75.3123 12.2939 75.1124 12.2939ZM76.1119 13.0935C76.062 12.7936 76.012 12.8436 76.1619 12.8436C76.2619 13.0935 76.2619 12.9935 76.1119 13.0935ZM81.2594 18.2909C81.2594 17.991 81.2094 18.041 81.3593 18.041C81.4093 18.3408 81.4093 18.2409 81.2594 18.2909ZM79.3603 58.071C80.3598 56.7216 81.2094 55.3723 82.009 53.923H81.4593C81.5592 53.973 81.5592 54.073 81.5592 54.2229C81.5592 54.3228 81.5092 54.3228 81.2094 54.3228C81.2594 54.1729 81.2594 54.023 81.3093 53.923H79.2104C78.7106 54.7226 78.2109 55.4723 77.6612 56.2219C77.7111 56.2219 77.7611 56.2719 77.8111 56.2719C77.6612 56.4718 77.5112 56.5717 77.3613 56.6217C77.3113 56.6717 77.3113 56.7216 77.2614 56.7716C77.5112 56.8716 77.7611 56.8716 78.011 56.7216C77.911 57.1214 77.4613 56.9715 77.2114 57.2214C77.3613 57.4213 77.5612 57.2714 77.7111 57.2714C77.7111 57.4713 77.7111 57.4713 77.3113 57.6712C77.1114 57.5712 76.9615 57.4213 76.9615 57.2214C76.6117 57.6712 76.2119 58.1709 75.8121 58.6207C76.1619 58.5207 75.912 58.6207 76.4618 58.9205C77.0115 59.2704 77.0115 58.9705 76.9115 59.3203C75.8621 59.1204 76.1119 59.2704 75.6622 58.7206C73.963 60.6697 72.1139 62.3688 70.015 63.918C70.015 63.918 70.015 63.918 70.065 63.918C69.8651 64.1179 69.6652 64.2679 69.5152 64.4678C69.6652 64.7676 69.5152 65.0175 69.3153 65.2674C69.2154 64.9175 69.3153 65.0175 68.8156 65.1174C68.6657 65.1674 68.5157 65.1174 68.4158 65.0175C64.2179 67.7661 59.3203 69.5652 54.1229 70.2149C54.2229 70.3148 54.2729 70.4148 54.3728 70.5147C53.8231 70.6147 54.023 70.5147 53.6732 70.9645C53.4733 70.8146 53.3733 70.5147 52.9735 70.7646C53.0735 70.5647 53.0735 70.4148 53.1734 70.4148C53.2234 70.4148 53.2234 70.3648 53.2734 70.3648C53.0235 70.4148 52.7236 70.4148 52.4738 70.4148C52.3738 70.5647 52.4238 70.5647 52.3238 70.4648C52.3238 70.4148 52.3738 70.4148 52.3738 70.4148C51.5742 70.4648 50.8246 70.5147 49.975 70.5147C49.0755 70.5147 48.2259 70.4648 47.3763 70.4148C47.0765 70.5147 47.1264 70.5147 47.0765 70.4148C47.0765 70.4148 47.0765 70.4148 47.1264 70.4148C44.6277 70.2149 42.1789 69.7151 39.8801 69.0155C39.8801 69.0655 39.8801 69.1154 39.8801 69.1654C40.1299 69.1154 40.1299 69.3653 40.2299 69.4153C40.1799 69.5652 40.1799 69.7151 40.1299 69.8651C39.93 69.7651 39.7801 69.6152 39.5802 69.6652C39.4803 69.6652 39.3303 69.5152 39.1804 69.4153C39.3303 69.2154 39.1304 68.9655 39.3803 68.7656C39.3303 68.7656 39.3303 68.7656 39.2804 68.7156C39.2804 68.7156 39.2304 68.7656 39.1304 68.8156C38.9805 68.9155 38.9805 68.9155 38.8806 68.7156C38.9305 68.6657 38.9805 68.6657 39.0305 68.6157C37.6812 68.1659 36.3818 67.6162 35.1324 67.0165C35.0325 67.0165 35.0325 67.0165 34.9825 66.9665C34.8326 66.9165 34.7326 66.8166 34.5827 66.7666C34.6327 66.8666 34.6327 66.9665 34.6827 67.0665C34.5827 67.1164 34.6826 67.1664 34.2829 66.8666C34.3828 66.8166 34.4827 66.8166 34.5827 66.7666C28.8855 63.8681 24.1379 59.3703 20.8396 53.923H17.991C18.3908 54.6227 18.7406 55.2724 19.1904 55.972C19.2404 55.972 19.2903 55.972 19.3403 55.972C19.3403 56.022 19.3403 56.072 19.2903 56.1719C19.3903 56.3218 19.5402 56.5217 19.6402 56.6717C19.6901 56.6717 19.6901 56.6217 19.7401 56.6217C19.8401 56.6217 19.89 56.8216 19.7901 56.9215C21.0894 58.8206 22.5387 60.5697 24.1879 62.2189C26.9865 65.0175 30.2349 67.3663 33.7331 69.1154C33.7831 69.1154 33.7831 69.1154 33.8331 69.1154V69.1654C34.4827 69.4653 35.1324 69.7651 35.7821 70.065C36.8316 70.5147 37.8811 70.9145 38.9805 71.2644V71.2144C38.9805 71.2144 39.0305 71.1644 39.0805 71.1644C39.1304 71.2144 39.1804 71.2644 39.1804 71.3143C39.7301 71.5142 40.3298 71.6642 40.8796 71.8141C40.9295 71.7641 40.9795 71.7641 41.1294 71.7641V71.8641C41.2294 71.8641 41.2794 71.914 41.3793 71.914C41.3793 71.8141 41.3793 71.7141 41.2794 71.6642C41.2294 71.6142 41.2294 71.4643 41.2294 71.3143C41.0295 71.2144 41.0295 71.4643 40.8796 71.5142C40.6797 71.5142 40.4798 71.5142 40.2299 71.4643C40.4798 71.2644 40.7296 71.2144 40.9295 71.0145C41.0795 70.8646 41.2794 70.7146 41.4793 70.5647C41.6292 70.7646 41.6292 70.7646 41.4793 71.1144C41.7291 71.3643 41.929 71.6142 41.7791 71.964C44.4778 72.6137 47.2764 72.9135 50.075 72.9135C51.924 72.9135 53.7231 72.7636 55.5222 72.5137C55.4723 72.5137 55.4223 72.4638 55.3723 72.4138C55.6222 72.1639 55.6222 72.1639 55.8221 72.3138C55.7221 72.3638 55.6722 72.4638 55.5722 72.4638C58.5707 72.014 61.4693 71.2144 64.2679 70.015C68.6157 68.1659 72.4638 65.5672 75.8121 62.2189C75.5622 62.2689 75.2624 62.3188 75.0125 62.019C75.2124 61.969 75.4123 61.919 75.6122 61.8691C75.7621 62.1189 75.7621 62.2189 75.8121 62.2189C75.8121 62.2189 75.8121 62.2189 75.8621 62.2189C76.1119 61.969 76.3618 61.7191 76.6117 61.4193C76.4618 61.3693 76.2119 61.3693 76.062 61.0195C76.012 60.8196 75.8121 60.6697 75.6122 60.5197C75.6622 60.3198 75.8121 60.2699 76.012 60.2699C76.2119 60.2699 76.3118 60.1699 76.4118 60.02C76.5117 59.92 76.6617 59.8201 76.7616 59.7701C77.0615 59.97 76.8616 60.1699 76.9115 60.3698C76.9615 60.6197 76.8116 60.7696 76.7116 60.9195C76.7616 61.0195 76.8116 61.1194 76.9115 61.2194C77.1114 61.0195 77.2614 60.8196 77.4613 60.6197C77.4113 60.4698 77.5612 60.3698 77.5612 60.3198C77.4613 60.02 77.0115 59.7201 77.8111 59.6702C77.961 59.6702 78.1109 59.6202 78.2609 59.6702C78.4108 59.5202 78.5107 59.3703 78.6607 59.2204C78.6107 59.1704 78.5607 59.0205 78.4608 58.8206C78.6607 58.8706 78.7606 58.8706 78.7606 58.9205C78.7106 58.8206 78.6107 58.7706 78.5107 58.5707C78.7106 58.6207 78.8106 58.6707 78.9605 58.7206C78.8106 58.8706 78.7606 58.9205 78.7606 58.9205C78.7606 59.0205 78.7106 59.1204 78.7106 59.1704C78.8606 58.9705 79.0605 58.7706 79.2104 58.5207C79.1604 58.4208 79.1104 58.3208 79.0105 58.2209C79.0605 57.971 79.0105 57.921 79.3603 58.071ZM80.2099 55.972C80.3098 56.022 80.4598 56.022 80.6097 56.072C80.3598 56.3718 80.2099 56.5717 79.96 56.3718C79.8101 56.2719 79.6602 56.2719 79.4103 56.2219C79.96 55.6222 79.7101 55.8221 80.2099 55.972ZM79.2604 56.5717C79.3103 56.5217 79.3603 56.5217 79.4103 56.5217C79.4603 56.5717 80.01 56.8716 79.6602 57.2214C79.5602 57.3713 79.3103 57.3213 79.2604 57.1714C79.2604 56.9715 79.2604 56.7716 79.2604 56.5717ZM24.4877 59.6202C24.4378 59.4703 24.3878 59.3703 24.3378 59.2204C24.4378 59.1704 24.5377 59.1704 24.6377 59.1204C24.7876 59.3703 24.6876 59.4703 24.4877 59.6202ZM28.5357 64.068C28.7856 63.8181 28.8856 63.968 28.9355 64.1679C28.8356 64.1179 28.6856 64.1179 28.5357 64.068ZM29.6852 64.6677C29.4853 64.7176 29.4853 64.4178 29.4353 63.8681C30.035 64.2179 29.8351 64.6177 29.6852 64.6677ZM33.2833 67.3163C33.4832 67.1164 33.5832 67.2664 33.6832 67.4163C33.5832 67.3663 33.4333 67.3163 33.2833 67.3163ZM36.4318 67.916C36.4818 68.066 36.4818 68.1159 36.3318 68.1659C36.2319 68.066 36.2819 68.016 36.4318 67.916ZM36.0819 68.9155C35.982 68.7156 35.982 68.7656 36.1319 68.6657C36.1819 68.8656 36.1819 68.8156 36.0819 68.9155ZM36.3318 68.5157C36.4318 68.6657 36.4318 68.6657 36.2319 68.8656C36.1819 68.6657 36.1819 68.6657 36.3318 68.5157ZM36.2819 69.4153C36.1819 69.3653 36.1819 69.2154 36.3318 69.0155C36.4318 69.1654 36.5317 69.3153 36.7816 69.1654C36.5317 69.4653 36.3818 69.5152 36.2819 69.4153ZM37.1314 68.8156C37.2814 68.7156 37.3313 68.8656 37.3313 69.0155C37.2813 69.0155 37.1814 68.9655 37.0814 68.9155C37.0814 68.8656 37.0815 68.8156 37.1314 68.8156ZM37.3813 69.3653C37.0815 69.2654 37.1314 69.3153 37.1814 69.1654C37.4813 69.2154 37.4313 69.1654 37.3813 69.3653ZM37.981 69.4153C37.7811 69.1654 37.7811 69.1654 38.0809 69.1154C38.0809 69.2154 38.031 69.3153 37.981 69.4153ZM38.3808 69.965C38.4308 69.8651 38.4808 69.8151 38.4808 69.7151C38.5307 69.8151 38.6307 69.8651 38.7306 69.965H38.3808ZM38.8806 69.8151C38.9305 69.6152 38.9305 69.5152 39.1304 69.5152C39.3803 69.5652 39.4803 69.6652 39.5302 70.065C39.2804 70.015 39.0805 69.915 38.8806 69.8151ZM39.2304 70.4648C39.1804 70.3648 39.1804 70.4148 39.2304 70.2649C39.3303 70.3648 39.3303 70.3148 39.2304 70.4648ZM39.5302 70.6647C39.4303 70.7646 39.3803 70.6647 39.3303 70.5647C39.4303 70.5147 39.5302 70.4648 39.6802 70.4148C39.5802 70.5147 39.5802 70.6147 39.5302 70.6647ZM39.7301 71.2144C39.6302 71.1644 39.6302 71.2144 39.6802 71.0145C39.7801 71.1144 39.7801 71.0645 39.7301 71.2144ZM39.98 70.015C40.03 70.015 40.03 70.065 40.08 70.1149L40.03 70.2149C39.98 70.2149 39.98 70.1649 39.93 70.1149C39.93 70.065 39.93 70.015 39.98 70.015ZM40.5297 71.1144C40.1799 71.2644 39.98 71.0645 39.8801 71.0645C39.8301 70.5647 40.08 70.4148 40.6797 70.6647C40.6297 70.8646 40.7296 71.0645 40.5297 71.1144ZM56.8216 71.3643C56.7216 71.2144 56.7216 71.2644 56.8716 71.1144C57.0215 71.3143 57.0715 71.2644 56.8216 71.3643ZM73.2134 62.8686C73.3133 62.5687 73.2634 62.5687 73.4133 62.6687C73.2634 62.9185 73.3133 62.9185 73.2134 62.8686ZM74.4128 62.069C74.3128 61.919 74.3128 62.019 74.4628 61.7691C74.5127 62.019 74.5127 61.919 74.4128 62.069ZM75.6622 61.4693C75.5622 61.6692 75.6122 61.6192 75.4623 61.7191L75.4123 61.6692C75.5622 61.4693 75.5122 61.5192 75.6622 61.4693ZM75.962 59.7701C75.7621 59.5702 76.012 59.4703 76.062 59.3203C76.012 59.4703 76.012 59.6202 75.962 59.7701ZM77.961 59.2204C77.7111 59.1204 77.7611 59.0205 77.8611 58.7706C77.961 58.9705 77.961 58.8206 77.961 59.2204ZM78.1609 56.2719C78.061 56.6217 78.1109 56.5717 78.011 56.5717C77.961 56.1219 77.8611 56.2219 78.2109 56.072C78.4608 55.972 78.4608 55.972 78.6107 56.2719C78.6607 56.4218 78.8106 56.5217 78.9105 56.6217C78.5107 56.8216 78.4108 56.4218 78.1609 56.2719ZM39.3803 69.1154C39.5302 69.1154 39.6802 69.3653 39.8801 69.1154C39.4803 68.9655 39.4303 68.8656 39.3803 69.1154ZM39.3803 69.1154C39.5302 69.1154 39.6802 69.3653 39.8801 69.1154C39.4803 68.9655 39.4303 68.8656 39.3803 69.1154ZM39.3803 69.1154C39.5302 69.1154 39.6802 69.3653 39.8801 69.1154C39.4803 68.9655 39.4303 68.8656 39.3803 69.1154ZM39.3803 69.1154C39.5302 69.1154 39.6802 69.3653 39.8801 69.1154C39.4803 68.9655 39.4303 68.8656 39.3803 69.1154ZM39.3803 69.1154C39.5302 69.1154 39.6802 69.3653 39.8801 69.1154C39.4803 68.9655 39.4303 68.8656 39.3803 69.1154ZM39.3803 69.1154C39.5302 69.1154 39.6802 69.3653 39.8801 69.1154C39.4803 68.9655 39.4303 68.8656 39.3803 69.1154ZM39.3803 69.1154C39.5302 69.1154 39.6802 69.3653 39.8801 69.1154C39.4803 68.9655 39.4303 68.8656 39.3803 69.1154ZM39.3803 69.1154C39.5302 69.1154 39.6802 69.3653 39.8801 69.1154C39.4803 68.9655 39.4303 68.8656 39.3803 69.1154ZM39.3803 69.1154C39.5302 69.1154 39.6802 69.3653 39.8801 69.1154C39.4803 68.9655 39.4303 68.8656 39.3803 69.1154ZM39.3803 69.1154C39.5302 69.1154 39.6802 69.3653 39.8801 69.1154C39.4803 68.9655 39.4303 68.8656 39.3803 69.1154ZM39.3803 69.1154C39.5302 69.1154 39.6802 69.3653 39.8801 69.1154C39.4803 68.9655 39.4303 68.8656 39.3803 69.1154ZM39.3803 69.1154C39.5302 69.1154 39.6802 69.3653 39.8801 69.1154C39.4803 68.9655 39.4303 68.8656 39.3803 69.1154ZM39.3803 69.1154C39.5302 69.1154 39.6802 69.3653 39.8801 69.1154C39.4803 68.9655 39.4303 68.8656 39.3803 69.1154ZM39.3803 69.1154C39.5302 69.1154 39.6802 69.3653 39.8801 69.1154C39.4803 68.9655 39.4303 68.8656 39.3803 69.1154ZM39.3803 69.1154C39.5302 69.1154 39.6802 69.3653 39.8801 69.1154C39.4803 68.9655 39.4303 68.8656 39.3803 69.1154ZM39.3803 69.1154C39.5302 69.1154 39.6802 69.3653 39.8801 69.1154C39.4803 68.9655 39.4303 68.8656 39.3803 69.1154ZM39.3803 69.1154C39.5302 69.1154 39.6802 69.3653 39.8801 69.1154C39.4803 68.9655 39.4303 68.8656 39.3803 69.1154ZM39.3803 69.1154C39.5302 69.1154 39.6802 69.3653 39.8801 69.1154C39.4803 68.9655 39.4303 68.8656 39.3803 69.1154ZM39.3803 69.1154C39.5302 69.1154 39.6802 69.3653 39.8801 69.1154C39.4803 68.9655 39.4303 68.8656 39.3803 69.1154Z" fill="#3565CF"/>
  <path d="M19.8401 18.9406H19.99C19.99 19.0905 19.99 19.0405 19.8401 19.0905C19.8401 18.9905 19.8401 18.9406 19.8401 18.9406Z" fill="white"/>
  <path d="M63.8681 48.8756C60.3698 48.8756 57.6212 47.8261 55.4223 45.6272C53.5232 43.7281 52.4238 41.2794 52.074 38.2309C51.7241 35.2324 52.1239 32.5837 53.2734 30.1349C55.2224 26.1369 58.5207 23.938 63.0685 23.7381C66.4668 23.5882 69.3153 24.5377 71.5142 26.6867C73.1134 28.2359 74.013 30.2349 74.2129 32.7336L74.2629 33.0335H68.4158L68.3658 32.8336C68.3158 32.7336 68.3158 32.6337 68.2659 32.5337V32.4838C68.1659 32.2339 68.1159 31.934 68.016 31.7341C67.3663 30.2849 65.917 29.2854 64.1679 29.0855C62.3688 28.8856 60.7196 29.5852 59.7201 30.8846C58.3708 32.6337 57.8711 34.7826 58.1709 37.4313C58.3208 38.6307 58.6707 39.8301 59.1704 40.8796C60.2699 43.1284 63.1184 44.2279 65.5672 43.2784C66.9665 42.7286 67.8661 41.5792 68.3658 39.7301C68.4158 39.5302 68.4658 39.2804 68.5157 39.0805C68.5157 38.9805 68.5657 38.8306 68.5657 38.7306L68.6157 38.4808H74.4128V38.7806C74.4628 40.1299 74.063 41.3793 73.7131 42.2789C72.2639 46.2769 68.7656 48.7256 64.4678 48.8756C64.2679 48.8756 64.068 48.8756 63.8681 48.8756ZM63.8681 24.2879C63.6182 24.2879 63.3683 24.2879 63.1184 24.2879C58.7706 24.4878 55.6722 26.5367 53.8231 30.3848C52.6737 32.7336 52.3238 35.2824 52.6737 38.1809C53.0235 41.0795 54.073 43.3783 55.8721 45.2274C58.021 47.4263 60.8696 48.4258 64.4678 48.2759C68.5657 48.1259 71.8141 45.8271 73.2134 42.079C73.5132 41.2794 73.8631 40.2299 73.8631 39.0805H69.0655V39.1304V39.1804V39.2304C69.0155 39.4803 68.9655 39.6802 68.9155 39.8801C68.3658 41.979 67.3663 43.2284 65.7671 43.8281C63.0685 44.8776 59.8701 43.6782 58.6707 41.1294C58.1209 40.03 57.7711 38.7306 57.6212 37.4813C57.3213 34.6827 57.8211 32.3838 59.2704 30.4848C60.4198 28.9855 62.2689 28.2359 64.2679 28.4358C66.2169 28.6357 67.8161 29.7351 68.5657 31.3843C68.7156 31.6842 68.7656 31.984 68.8656 32.2339C68.8656 32.2839 68.9155 32.3338 68.9155 32.3838H73.7131C73.4633 30.1349 72.6137 28.3858 71.2144 26.9865C69.2154 25.2374 66.8166 24.2879 63.8681 24.2879ZM27.5362 36.7816C27.5862 32.8336 28.5357 29.6352 31.2344 27.1364C33.7831 24.7876 36.8816 24.088 40.2299 24.4378C45.8271 24.9875 49.2254 29.3353 49.8251 34.3328C50.2249 37.5312 49.8751 40.5297 48.1259 43.3283C46.3768 46.1769 43.8281 47.7261 40.5297 48.1759C37.8811 48.5257 35.3823 48.2259 33.0335 46.9265C29.935 45.2274 28.3358 42.4288 27.7361 39.0305C27.6362 38.3808 27.5862 37.7811 27.5362 37.2814C27.5862 37.0815 27.5862 36.9315 27.5362 36.7816ZM32.4338 36.3318C32.4838 38.031 32.7336 39.6802 33.5832 41.2294C34.7326 43.2784 36.5317 44.2279 38.8306 44.2279C41.1294 44.2279 42.9285 43.2784 43.978 41.1794C45.5772 37.981 45.5272 34.6827 43.978 31.4843C42.9785 29.3853 41.0795 28.4358 38.7806 28.4358C36.4318 28.4358 34.6327 29.4853 33.5332 31.5842C32.7336 33.0835 32.4838 34.6827 32.4338 36.3318ZM14.3928 24.9375V43.6782H25.4873V47.7761H9.54523V24.9375H14.3928ZM4.84758 24.9375H0V47.7761H4.84758V24.9375ZM73.5632 48.4258H80.9095L90.4048 35.8321L81.909 24.2379H74.9625L82.9585 35.8821L73.5632 48.4258ZM80.6597 47.8761H74.7126L83.7081 35.8821L76.062 24.7876H81.6092L89.7051 35.8321L80.6597 47.8761ZM92.8536 33.3333L89.0055 28.2359L92.5537 24.2379H99.7001L92.8536 33.3333ZM89.7551 28.2859L92.8536 32.3838L98.5507 24.7876H92.8036L89.7551 28.2859ZM92.4038 49.1254H100L92.5037 38.6307L88.6057 43.7281L92.4038 49.1254ZM98.9505 48.5757H92.7536L89.4053 43.7781L92.6037 39.6302L98.9505 48.5757Z" fill="#3565CF"/>
  <path d="M50.025 12.9435L50.7246 14.9925L52.9235 15.0425L51.1744 16.3918L51.8241 18.4408L50.025 17.2414L48.2259 18.4408L48.8256 16.3918L47.1264 15.0425L49.2753 14.9925L50.025 12.9435Z" fill="#3565CF"/>
  <path d="M59.8201 12.9435L60.5697 14.9925L62.7186 15.0425L61.0195 16.3918L61.6192 18.4408L59.8201 17.2414L58.021 18.4408L58.6706 16.3918L56.9215 15.0425L59.1204 14.9925L59.8201 12.9435Z" fill="#3565CF"/>
  <path d="M40.2299 12.9435L40.9295 14.9925L43.1284 15.0425L41.3793 16.3918L41.979 18.4408L40.2299 17.2414L38.4308 18.4408L39.0304 16.3918L37.3313 15.0425L39.4802 14.9925L40.2299 12.9435Z" fill="#3565CF"/>
  <path d="M34.8325 54.4228H35.2823V56.8716H34.8325V54.4228Z" fill="#3565CF"/>
  <path d="M37.5811 54.4228H37.9809V56.4718H39.1303V56.8716H37.5311V54.4228H37.5811Z" fill="#3565CF"/>
  <path d="M42.2288 56.9215C42.0789 56.9215 41.879 56.8715 41.7791 56.8216C41.6291 56.7716 41.5292 56.6716 41.4292 56.5717C41.3293 56.4717 41.2293 56.3218 41.1794 56.1719C41.1294 56.022 41.0794 55.8221 41.0794 55.6222C41.0794 55.4223 41.1294 55.2224 41.1794 55.0724C41.2293 54.9225 41.3293 54.7726 41.4292 54.6726C41.5292 54.5727 41.6291 54.4727 41.7791 54.4228C41.929 54.3728 42.0789 54.3228 42.2288 54.3228C42.3788 54.3228 42.5787 54.3728 42.6786 54.4228C42.8285 54.4727 42.9285 54.5727 43.0284 54.6726C43.1284 54.7726 43.2283 54.9225 43.2783 55.0724C43.3283 55.2224 43.3783 55.4223 43.3783 55.6222C43.3783 55.8221 43.3283 56.022 43.2783 56.1719C43.2283 56.3218 43.1284 56.4717 43.0284 56.5717C42.9285 56.6716 42.8285 56.7716 42.6786 56.8216C42.5287 56.9215 42.3788 56.9215 42.2288 56.9215ZM42.2288 56.5217C42.4287 56.5217 42.6286 56.4717 42.7286 56.3218C42.8285 56.1719 42.9285 55.972 42.9285 55.6721C42.9285 55.3723 42.8785 55.1724 42.7286 55.0225C42.5787 54.8725 42.4287 54.8226 42.2288 54.8226C42.0289 54.8226 41.829 54.8725 41.7291 55.0225C41.5792 55.1724 41.5292 55.3723 41.5292 55.6721C41.5292 55.972 41.5792 56.1719 41.7291 56.3218C41.829 56.4717 41.979 56.5217 42.2288 56.5217Z" fill="#3565CF"/>
  <path d="M46.5267 56.9215C46.3767 56.9215 46.1768 56.8715 46.0769 56.8216C45.927 56.7716 45.827 56.6716 45.7271 56.5717C45.6271 56.4717 45.5272 56.3218 45.4772 56.1719C45.4272 56.022 45.3772 55.8221 45.3772 55.6222C45.3772 55.4223 45.4272 55.2224 45.4772 55.0724C45.5272 54.9225 45.6271 54.7726 45.7271 54.6726C45.827 54.5727 45.927 54.4727 46.0769 54.4228C46.2268 54.3728 46.3767 54.3228 46.5267 54.3228C46.6766 54.3228 46.7765 54.3228 46.9265 54.3728C47.0264 54.4228 47.1264 54.4727 47.2263 54.5227C47.3263 54.5727 47.3762 54.6726 47.4262 54.7726C47.4762 54.8725 47.5262 54.9725 47.5761 55.0724H47.1264C47.0764 54.9725 46.9764 54.8725 46.9265 54.8226C46.8765 54.7726 46.7266 54.7226 46.5766 54.7226C46.3767 54.7226 46.1768 54.7726 46.0769 54.9225C45.927 55.0724 45.877 55.2723 45.877 55.5722C45.877 55.872 45.927 56.0719 46.0769 56.2219C46.2268 56.3718 46.3767 56.4218 46.5766 56.4218C46.7266 56.4218 46.8265 56.3718 46.9265 56.3218C47.0264 56.2718 47.0764 56.1719 47.1264 56.0719H47.5761C47.5262 56.3218 47.3762 56.4717 47.2263 56.6217C47.0764 56.8715 46.8265 56.9215 46.5267 56.9215Z" fill="#3565CF"/>
  <path d="M50.1748 55.6222L49.3752 54.4228H49.875L50.4747 55.3223L51.0744 54.4228H51.5741L50.7745 55.6222L51.5741 56.8716H51.0744L50.4747 55.922L49.875 56.8716H49.3752L50.1748 55.6222Z" fill="#3565CF"/>
  <path d="M55.922 54.4228H56.3718V56.4718H57.5212V56.8716H55.922V54.4228Z" fill="#3565CF"/>
  <path d="M59.92 54.8226H59.1704V54.4228H61.1194V54.8226H60.3698V56.8716H59.92V54.8226Z" fill="#3565CF"/>
  <path d="M63.1683 54.4228H64.0679C64.2178 54.4228 64.3677 54.4728 64.5177 54.5227C64.6676 54.5727 64.7675 54.6727 64.8675 54.7726C64.9674 54.8726 65.0174 55.0225 65.0674 55.1724C65.1174 55.3223 65.1673 55.5222 65.1673 55.6722C65.1673 55.8721 65.1174 56.022 65.0674 56.1719C65.0174 56.3218 64.9175 56.4718 64.8675 56.5717C64.7675 56.6717 64.6676 56.7716 64.5177 56.8216C64.3677 56.8716 64.2178 56.9215 64.0679 56.9215H63.1683V54.4228ZM64.0679 56.5217C64.1678 56.5217 64.2678 56.5217 64.3178 56.4718C64.4177 56.4218 64.4677 56.3718 64.5177 56.3218C64.5676 56.2719 64.6176 56.1719 64.6676 56.072C64.7176 55.972 64.7176 55.8221 64.7176 55.7221C64.7176 55.6222 64.7176 55.4723 64.6676 55.3723C64.6176 55.2724 64.5676 55.1724 64.5177 55.1224C64.4677 55.0725 64.3677 55.0225 64.3178 54.9725C64.2178 54.9225 64.1678 54.9225 64.0679 54.9225H63.6181V56.6217H64.0679V56.5217Z" fill="#3565CF"/>
</svg>