<svg xmlns="http://www.w3.org/2000/svg" width="22" height="22" viewBox="0 0 22 22" fill="none">
  <path d="M21.0833 20.4417H0.916626L3.84996 16.775H18.15L21.0833 20.4417Z" fill="#D2E1F7"/>
  <path d="M8.61663 14.1167H6.04996L0.916626 20.4417H21.0833L15.95 14.1167H13.3833" stroke="#1F67D6" stroke-miterlimit="10" stroke-linejoin="round"/>
  <path d="M11 10.45C12.5188 10.45 13.75 9.21879 13.75 7.70001C13.75 6.18123 12.5188 4.95001 11 4.95001C9.48119 4.95001 8.24997 6.18123 8.24997 7.70001C8.24997 9.21879 9.48119 10.45 11 10.45Z" stroke="#1F67D6" stroke-miterlimit="10" stroke-linejoin="round"/>
  <path d="M15.4 3.30001C12.925 0.916679 9.07496 0.916679 6.59996 3.30001C4.12496 5.68335 4.21663 9.62501 6.59996 12.0083L11 16.4083L15.4 12.0083C17.7833 9.62501 17.7833 5.77501 15.4 3.30001Z" stroke="#1F67D6" stroke-miterlimit="10" stroke-linejoin="round"/>
</svg>