<svg xmlns="http://www.w3.org/2000/svg" width="22" height="22" viewBox="0 0 22 22" fill="none">
  <path d="M21.0834 20.1667H3.20835C1.92502 20.1667 0.916687 19.1583 0.916687 17.875V16.5H21.0834V20.1667Z" fill="#D2E1F7"/>
  <path d="M21.0834 20.1666H3.20835C1.92502 20.1666 0.916687 19.1583 0.916687 17.875V4.49164H21.0834V20.1666Z" stroke="#1F67D6" stroke-miterlimit="10" stroke-linejoin="round"/>
  <path d="M0.916687 4.49165V4.12498C0.916687 2.84165 1.92502 1.83331 3.20835 1.83331H18.15V4.49165" stroke="#1F67D6" stroke-miterlimit="10" stroke-linejoin="round"/>
  <path d="M13.2917 13.0167C13.7979 13.0167 14.2083 12.6062 14.2083 12.1C14.2083 11.5937 13.7979 11.1833 13.2917 11.1833C12.7854 11.1833 12.375 11.5937 12.375 12.1C12.375 12.6062 12.7854 13.0167 13.2917 13.0167Z" fill="#1F67D6"/>
  <path d="M21.0833 14.4833H13.3833C12.1 14.4833 11 13.3833 11 12.1C11 10.8167 12.1 9.71667 13.3833 9.71667H21.0833" stroke="#1F67D6" stroke-miterlimit="10" stroke-linejoin="round"/>
</svg>